<svg aria-hidden="true" style="position: absolute; width: 0; height: 0; overflow: hidden;" version="1.1" xmlns="http://www.w3.org/2000/svg" xmlns:xlink="http://www.w3.org/1999/xlink">
<defs>
<symbol id="icon-arrow-left" viewBox="0 0 32 32">
<path stroke-linejoin="round" stroke-linecap="round" stroke-miterlimit="4" stroke-width="2.666" d="M25.334 16h-18.668M16 25.334l-9.334-9.334 9.334-9.334"></path>
</symbol>
<symbol id="icon-arrow-right" viewBox="0 0 32 32">
<path stroke-linejoin="round" stroke-linecap="round" stroke-miterlimit="4" stroke-width="2.666" d="M6.666 16h18.668M16 25.334l9.334-9.334-9.334-9.334"></path>
</symbol>
<symbol id="icon-github" viewBox="0 0 32 32">
<path d="M15.998 0.333c-8.834 0-15.998 7.192-15.998 16.064 0 7.096 4.584 13.116 10.944 15.242 0.8 0.148 1.092-0.348 1.092-0.774 0-0.382-0.014-1.392-0.022-2.732-4.45 0.97-5.39-2.154-5.39-2.154-0.726-1.856-1.776-2.35-1.776-2.35-1.454-0.996 0.108-0.976 0.108-0.976 1.606 0.114 2.45 1.656 2.45 1.656 1.428 2.454 3.746 1.746 4.658 1.334 0.144-1.038 0.558-1.746 1.016-2.148-3.552-0.406-7.288-1.784-7.288-7.938 0-1.754 0.624-3.188 1.648-4.312-0.166-0.406-0.714-2.040 0.156-4.25 0 0 1.344-0.432 4.4 1.646 1.276-0.356 2.644-0.534 4.006-0.54 1.358 0.008 2.728 0.184 4.006 0.542 3.054-2.078 4.396-1.646 4.396-1.646 0.872 2.212 0.324 3.844 0.16 4.25 1.026 1.124 1.644 2.558 1.644 4.312 0 6.17-3.74 7.528-7.304 7.926 0.574 0.496 1.086 1.476 1.086 2.974 0 2.148-0.020 3.88-0.020 4.406 0 0.43 0.288 0.93 1.1 0.772 6.35-2.128 10.93-8.146 10.93-15.24 0-8.872-7.164-16.064-16.002-16.064z"></path>
</symbol>
<symbol id="icon-heart" viewBox="0 0 32 32">
<path fill="#ff6b08" style="fill: var(--color1, #ff6b08)" d="M16 30.583l-2.24-2.24c-8.32-7.36-13.76-12.32-13.76-18.4 0-4.96 3.84-8.8 8.8-8.8 2.72 0 5.44 1.28 7.2 3.36 1.76-2.080 4.48-3.36 7.2-3.36 4.96 0 8.8 3.84 8.8 8.8 0 6.080-5.44 11.040-13.76 18.4l-2.24 2.24z"></path>
</symbol>
<symbol id="icon-linkedin" viewBox="0 0 32 32">
<path d="M16 0c-8.835 0-16 7.165-16 16s7.165 16 16 16 16-7.165 16-16-7.165-16-16-16zM11.351 24.188h-3.897v-11.723h3.897zM9.402 10.863h-0.025c-1.308 0-2.153-0.9-2.153-2.025 0-1.15 0.872-2.026 2.205-2.026s2.153 0.875 2.179 2.026c0 1.125-0.846 2.025-2.205 2.025zM25.401 24.188h-3.896v-6.272c0-1.576-0.564-2.651-1.974-2.651-1.076 0-1.718 0.725-1.999 1.425-0.103 0.25-0.128 0.601-0.128 0.951v6.547h-3.896s0.051-10.624 0-11.723h3.896v1.66c0.518-0.799 1.444-1.935 3.512-1.935 2.564 0 4.486 1.675 4.486 5.276z"></path>
</symbol>
<symbol id="icon-search" viewBox="0 0 32 32">
<path fill="none" stroke="#fff" style="stroke: var(--color2, #fff)" stroke-linejoin="round" stroke-linecap="round" stroke-miterlimit="4" stroke-width="2.6667" d="M14.667 25.333c5.891 0 10.667-4.776 10.667-10.667s-4.776-10.667-10.667-10.667v0c-5.891 0-10.667 4.776-10.667 10.667s4.776 10.667 10.667 10.667v0zM28 28l-5.8-5.8"></path>
</symbol>
<symbol id="icon-three-points" viewBox="0 0 32 32">
<path d="M5.174 12.8c0.851 0 1.504 0.243 1.968 0.733 0.43 0.445 0.696 1.051 0.696 1.72 0 0.028-0 0.055-0.001 0.083l0-0.004c0.001 0.021 0.001 0.047 0.001 0.072 0 0.666-0.265 1.269-0.696 1.711l0-0.001c-0.461 0.461-1.12 0.691-1.968 0.691-0.813 0-1.456-0.23-1.93-0.691-0.443-0.432-0.718-1.035-0.718-1.703 0-0.029 0.001-0.058 0.002-0.087l-0 0.004c0-0.726 0.23-1.325 0.694-1.798 0.461-0.49 1.11-0.733 1.952-0.733zM15.904 12.8c0.848 0 1.504 0.243 1.968 0.733 0.43 0.445 0.696 1.051 0.696 1.72 0 0.028-0 0.055-0.001 0.083l0-0.004c0.001 0.021 0.001 0.047 0.001 0.072 0 0.666-0.265 1.269-0.696 1.711l0-0.001c-0.464 0.461-1.12 0.691-1.968 0.691-0.813 0-1.456-0.23-1.933-0.691-0.44-0.432-0.712-1.032-0.712-1.697 0-0.030 0.001-0.060 0.002-0.090l-0 0.004c0-0.726 0.23-1.325 0.691-1.798 0.461-0.49 1.11-0.733 1.952-0.733zM26.624 12.8c0.851 0 1.507 0.243 1.971 0.733 0.429 0.444 0.693 1.050 0.693 1.717 0 0.029-0 0.057-0.001 0.086l0-0.004c0.001 0.022 0.001 0.049 0.001 0.075 0 0.664-0.264 1.266-0.693 1.708l0.001-0.001c-0.464 0.461-1.12 0.691-1.971 0.691-0.813 0-1.456-0.23-1.93-0.691-0.441-0.432-0.715-1.034-0.715-1.7 0-0.029 0.001-0.058 0.002-0.087l-0 0.004c0-0.726 0.23-1.325 0.694-1.798 0.461-0.49 1.114-0.733 1.949-0.733z"></path>
</symbol>
<symbol id="icon-close-modal" viewBox="0 0 32 32">
<path d="M32 3.223l-3.223-3.223-12.777 12.777-12.777-12.777-3.223 3.223 12.777 12.777-12.777 12.777 3.223 3.223 12.777-12.777 12.777 12.777 3.223-3.223-12.777-12.777 12.777-12.777z"></path>
</symbol>
</defs>
</svg>
